# xmcd
# 
# Track frame offsets:
#     150
#     15828
#     40720
#     58281
#     74932
#     90282
#     108706
#     130453
#     142762
#     161504
# 
# Disc length: 2378
# 
# Revision: 1
# Processed by: cddbd v1.5.2PL0 Copyright (c) Steve Scherf et al.
# Submitted via: fre:ac v1.0.27
# 
DISCID=8509480a
DTITLE=Mandolin Orange - Blindfaller
DYEAR=2016
DGENRE=????
TTITLE0=Hey Stranger
TTITLE1=Wildfire
TTITLE2=Picking Up Pieces
TTITLE3=Lonesome Whistle
TTITLE4=Echo
TTITLE5=Cold Lover's Waltz
TTITLE6=My Blinded Heart
TTITLE7=Hard Travelin'
TTITLE8=Gospel Shoes
TTITLE9=Take This Heart Of Gold
EXTD=YEAR: 2016
EXTT0=
EXTT1=
EXTT2=
EXTT3=
EXTT4=
EXTT5=
EXTT6=
EXTT7=
EXTT8=
EXTT9=
PLAYORDER=
